<svg width="20" height="20" viewBox="0 0 20 20" fill="none" xmlns="http://www.w3.org/2000/svg">
<path d="M10 3.75V1.875M10 13.125V6.875M10 6.875L2.92734 9.23281C2.80289 9.2743 2.69465 9.35389 2.61796 9.46032C2.54126 9.56674 2.49999 9.6946 2.5 9.82578V11.875C2.5 16.25 10 18.125 10 18.125C10 18.125 17.5 16.25 17.5 11.875V9.82578C17.5 9.6946 17.4587 9.56674 17.382 9.46032C17.3053 9.35389 17.1971 9.2743 17.0727 9.23281L10 6.875ZM4.375 8.75V4.375C4.375 4.20924 4.44085 4.05027 4.55806 3.93306C4.67527 3.81585 4.83424 3.75 5 3.75H15C15.1658 3.75 15.3247 3.81585 15.4419 3.93306C15.5592 4.05027 15.625 4.20924 15.625 4.375V8.75" stroke="#1C1C1C" stroke-linecap="round" stroke-linejoin="round"/>
</svg>
